<?xml version="1.0" standalone="no"?>
<!DOCTYPE svg PUBLIC "-//W3C//DTD SVG 20010904//EN"
 "http://www.w3.org/TR/2001/REC-SVG-20010904/DTD/svg10.dtd">
<svg version="1.0" xmlns="http://www.w3.org/2000/svg"
 width="2424.000000pt" height="728.000000pt" viewBox="0 0 2424.000000 728.000000"
 preserveAspectRatio="xMidYMid meet">
<metadata>
Created by potrace 1.16, written by Peter Selinger 2001-2019
</metadata>
<g transform="translate(0.000000,728.000000) scale(0.100000,-0.100000)"
fill="#000000" stroke="none">
<path d="M7 7273 c-4 -3 -7 -441 -7 -972 0 -802 3 -981 15 -1056 48 -297 154
-542 345 -801 174 -235 377 -394 715 -559 159 -77 226 -102 395 -145 l105 -27
3 -807 2 -806 500 0 500 0 2 802 3 803 170 56 c285 94 488 196 692 347 112 83
311 283 386 389 132 186 229 388 271 564 58 239 56 203 56 1250 l0 969 -410 0
-410 0 -1 -537 c-1 -296 -4 -738 -8 -983 -7 -408 -10 -451 -29 -522 -62 -226
-223 -455 -427 -606 -83 -61 -254 -152 -343 -181 -115 -39 -280 -61 -454 -61
-142 0 -172 3 -286 30 -70 17 -156 40 -192 51 -91 30 -273 125 -325 171 -24
21 -47 38 -53 38 -13 0 -127 121 -183 195 -67 90 -105 153 -137 231 -62 149
-60 127 -68 999 -7 882 -9 1057 -12 1128 l-2 47 -403 0 c-222 0 -407 -3 -410
-7z"/>
<path d="M7875 7260 c-3 -5 -3 -1164 1 -2575 l7 -2565 407 0 408 0 6 22 c3 13
6 732 6 1599 0 867 3 1597 6 1623 l7 47 17 -28 c9 -15 43 -77 75 -138 32 -60
102 -191 155 -290 53 -99 409 -763 790 -1475 381 -712 698 -1301 704 -1307 8
-9 30 23 88 130 42 78 207 387 368 687 161 300 310 579 332 620 70 130 552
1030 751 1400 104 195 198 369 208 385 18 29 19 15 19 -760 0 -434 3 -1178 7
-1653 l6 -862 414 0 413 0 0 2575 0 2575 -415 0 -416 0 -78 -162 c-74 -153
-168 -346 -626 -1273 -103 -209 -218 -443 -255 -520 -37 -77 -190 -387 -339
-690 -150 -302 -315 -639 -368 -748 -53 -108 -100 -194 -104 -190 -5 5 -175
348 -380 763 -204 415 -448 910 -541 1100 -94 190 -203 413 -243 495 -40 83
-192 392 -338 688 l-266 537 -410 0 c-260 0 -412 -4 -416 -10z"/>
<path d="M5574 5290 c-537 -68 -995 -391 -1234 -868 -220 -439 -220 -967 0
-1418 221 -455 639 -769 1142 -860 172 -31 426 -26 611 12 173 35 403 130 550
228 37 25 67 39 67 33 0 -7 1 -78 1 -159 l0 -148 320 0 319 0 0 1590 0 1590
-317 -2 -318 -3 -2 -135 c-1 -74 -2 -141 -3 -147 0 -7 -38 12 -85 43 -163 106
-356 185 -555 225 -110 22 -385 33 -496 19z m416 -655 c102 -26 275 -115 366
-189 170 -137 295 -340 338 -548 20 -97 21 -284 1 -376 -72 -346 -352 -639
-700 -733 -117 -32 -347 -33 -461 -2 -219 60 -429 206 -553 386 -50 73 -119
225 -140 308 -133 525 225 1072 766 1169 74 14 308 4 383 -15z"/>
<path d="M14780 5269 c-107 -14 -288 -63 -399 -110 -390 -162 -714 -493 -866
-887 -154 -400 -131 -878 62 -1265 222 -446 614 -748 1103 -847 138 -29 385
-38 521 -20 l99 13 0 330 0 329 -22 -5 c-13 -2 -57 -12 -98 -22 -118 -26 -301
-23 -421 8 -227 59 -403 179 -535 364 -52 72 -114 187 -114 209 0 12 169 14
1214 14 l1214 0 12 86 c17 117 8 453 -15 554 -9 41 -34 129 -56 195 -184 553
-673 962 -1254 1050 -107 16 -336 18 -445 4z m439 -649 c279 -68 536 -283 635
-532 14 -36 26 -69 26 -72 0 -3 -400 -6 -890 -6 -489 0 -890 2 -890 5 0 19 60
141 97 200 144 221 394 384 653 424 92 14 270 5 369 -19z"/>
<path d="M17480 5013 c-1 -148 -3 -515 -5 -818 -4 -554 1 -673 31 -820 81
-395 324 -751 669 -981 299 -199 624 -285 987 -262 474 30 932 291 1198 683
127 188 237 484 260 702 7 62 10 400 8 928 l-3 830 -306 2 -306 2 -6 -44 c-4
-25 -7 -383 -7 -797 0 -432 -5 -790 -10 -840 -19 -162 -86 -326 -197 -481 -60
-82 -92 -111 -213 -193 -85 -58 -136 -85 -213 -114 -188 -70 -489 -65 -674 12
-79 32 -254 149 -312 207 -68 68 -167 221 -210 326 -52 125 -61 209 -61 584 0
185 -3 562 -7 839 l-6 502 -309 0 -308 0 0 -267z"/>
<path d="M22417 5255 c-237 -39 -452 -120 -639 -241 -55 -35 -68 -40 -68 -26
-1 9 -2 73 -3 142 l-2 125 -317 3 -318 2 0 -1580 0 -1580 318 2 317 3 5 880 5
880 27 76 c42 118 73 183 131 273 326 499 1018 569 1446 146 113 -112 177
-218 226 -370 55 -173 55 -180 55 -879 0 -356 3 -730 7 -830 l6 -181 311 2
311 3 3 775 c3 806 -2 958 -38 1128 -130 619 -606 1098 -1222 1233 -125 27
-433 35 -561 14z"/>
<path d="M16560 2465 l0 -315 315 0 315 0 0 315 0 315 -315 0 -315 0 0 -315z"/>
<path d="M7870 1383 c0 -27 -3 -107 -6 -179 -7 -142 4 -239 36 -311 39 -88
157 -186 258 -212 l42 -12 0 -169 0 -170 110 0 110 0 0 169 0 168 58 21 c122
45 211 129 251 237 19 50 21 78 21 280 l0 225 -84 0 c-62 0 -85 -4 -89 -14 -3
-7 -6 -105 -7 -217 -1 -184 -3 -208 -21 -246 -71 -147 -308 -183 -432 -65 -57
54 -67 88 -67 230 0 71 -3 170 -6 220 l-7 92 -83 0 -84 0 0 -47z"/>
<path d="M14100 881 l0 -551 90 0 90 0 1 343 0 342 185 -369 c102 -203 189
-365 194 -360 7 8 298 605 341 699 17 39 18 35 18 -307 l1 -348 90 0 90 0 0
550 0 550 -93 0 -93 0 -69 -147 c-38 -82 -103 -220 -145 -308 -42 -88 -91
-193 -110 -232 -18 -40 -36 -73 -39 -73 -3 0 -39 69 -80 153 -40 83 -124 253
-185 377 l-112 225 -87 3 -87 4 0 -551z"/>
<path d="M20860 1020 c0 -394 1 -411 21 -467 37 -97 136 -186 236 -213 59 -15
141 -22 175 -15 27 6 28 8 28 75 l0 68 -67 -1 c-105 -1 -173 36 -214 115 -16
30 -20 68 -25 197 l-6 160 119 3 118 3 3 78 3 77 -121 0 -120 0 0 165 0 165
-75 0 -75 0 0 -410z"/>
<path d="M21430 875 l0 -556 78 3 77 3 5 230 c5 253 7 260 72 322 91 88 238
84 325 -8 53 -57 57 -76 63 -319 l5 -225 75 0 75 0 0 235 c-1 288 -8 315 -114
421 -88 88 -150 113 -276 113 -91 1 -100 -2 -217 -62 -5 -2 -8 87 -8 197 l0
201 -80 0 -80 0 0 -555z"/>
<path d="M22312 1353 l3 -78 75 0 75 0 3 78 3 77 -81 0 -81 0 3 -77z"/>
<path d="M9145 1096 c-163 -52 -270 -183 -282 -349 -23 -298 280 -508 552
-383 273 125 307 506 60 676 -91 63 -233 87 -330 56z m212 -175 c78 -39 123
-115 123 -203 -1 -128 -102 -228 -230 -228 -94 0 -172 53 -210 142 -83 194
128 386 317 289z"/>
<path d="M11485 1096 c-201 -57 -325 -254 -285 -451 25 -125 107 -232 214
-281 118 -54 234 -53 349 4 l57 29 0 -39 0 -39 78 3 77 3 0 390 0 390 -77 3
-78 3 0 -36 c0 -19 -2 -35 -4 -35 -2 0 -33 14 -69 31 -80 37 -184 47 -262 25z
m201 -174 c82 -42 128 -117 128 -207 -1 -87 -41 -155 -121 -202 -122 -71 -297
3 -332 142 -15 58 -14 74 5 133 20 60 81 124 139 147 51 19 130 13 181 -13z"/>
<path d="M12400 1099 c-25 -5 -71 -22 -102 -37 l-58 -29 0 34 0 33 -80 0 -80
0 0 -384 c0 -298 3 -385 13 -388 6 -3 42 -6 80 -7 l67 -2 0 218 c0 198 2 222
21 263 44 98 118 145 222 143 l67 -1 0 77 0 78 -37 7 c-45 7 -54 7 -113 -5z"/>
<path d="M15312 856 c3 -235 5 -254 26 -299 33 -72 121 -159 195 -193 56 -26
72 -29 167 -29 95 0 110 3 158 28 30 15 56 27 59 27 3 0 3 -20 1 -44 -8 -64
-52 -124 -118 -159 -49 -26 -62 -28 -123 -24 l-67 4 1 -78 c1 -76 2 -79 26
-85 48 -12 161 4 223 32 73 33 150 111 188 191 l27 58 3 413 3 412 -76 0 -75
0 0 -189 c0 -212 -8 -273 -45 -331 -39 -62 -95 -94 -174 -98 -102 -6 -179 36
-223 122 -20 37 -22 61 -27 266 l-6 225 -73 1 -73 2 3 -252z"/>
<path d="M17632 863 c3 -245 3 -249 30 -305 37 -80 107 -152 187 -191 61 -30
73 -32 166 -32 93 0 105 2 167 33 118 58 190 151 217 282 12 53 15 419 4 446
-4 10 -25 14 -78 14 l-73 0 -4 -227 c-3 -212 -5 -231 -25 -269 -62 -115 -212
-162 -319 -99 -51 30 -101 93 -109 139 -3 17 -7 125 -8 241 l-2 210 -78 3 -78
3 3 -248z"/>
<path d="M19712 1099 c-24 -5 -70 -22 -103 -38 l-59 -29 0 34 0 34 -75 0 -75
0 0 -390 0 -390 74 0 74 0 4 228 c3 209 5 230 25 267 47 89 117 129 221 128
l72 -1 0 73 c0 41 -4 76 -9 80 -17 10 -105 12 -149 4z"/>
<path d="M19976 1102 c-10 -9 -6 -425 4 -470 27 -114 108 -215 214 -267 50
-24 76 -30 151 -33 93 -4 101 -2 234 55 11 5 13 -2 7 -38 -8 -55 -49 -114
-105 -154 -39 -27 -50 -30 -122 -30 l-79 0 0 -77 c0 -75 1 -78 26 -84 41 -10
145 3 206 26 99 37 186 133 222 245 14 44 16 103 14 440 l-3 390 -65 1 c-35 1
-70 0 -76 -3 -10 -4 -14 -61 -16 -226 -3 -241 -8 -264 -66 -323 -51 -50 -98
-67 -178 -62 -61 4 -78 10 -118 38 -29 21 -55 51 -71 84 -24 49 -25 55 -25
267 0 164 -3 218 -12 222 -18 6 -136 6 -142 -1z"/>
<path d="M22317 1095 c-4 -8 -6 -183 -7 -390 l0 -375 80 0 80 0 0 390 0 390
-74 0 c-56 0 -75 -4 -79 -15z"/>
<path d="M23780 1098 c-112 -20 -224 -107 -277 -215 -25 -52 -28 -68 -28 -163
0 -95 3 -111 29 -167 35 -76 113 -153 193 -191 51 -24 70 -27 158 -27 92 0
106 3 168 32 l68 32 -7 -37 c-17 -91 -56 -145 -131 -179 -44 -21 -66 -24 -114
-21 l-60 4 3 -80 3 -81 100 1 c127 1 198 26 265 93 88 89 85 67 88 569 l3 442
-76 0 -75 0 0 -36 c0 -25 -4 -34 -12 -31 -131 58 -207 72 -298 55z m193 -181
c120 -71 150 -241 61 -345 -46 -55 -106 -82 -177 -82 -135 0 -226 91 -228 227
-2 97 60 185 152 220 51 19 141 10 192 -20z"/>
<path d="M9750 888 c0 -117 5 -232 10 -256 18 -75 52 -135 115 -198 120 -121
295 -146 455 -64 29 15 40 17 41 8 1 -7 2 -22 3 -33 1 -18 9 -20 79 -23 l77
-3 0 391 0 390 -79 0 -79 0 -1 -222 c-2 -201 -4 -227 -22 -265 -24 -49 -77
-99 -128 -120 -78 -33 -210 6 -261 76 -44 63 -50 102 -50 322 l0 209 -80 0
-80 0 0 -212z"/>
<path d="M12909 1076 c-101 -41 -172 -108 -218 -205 -23 -49 -26 -69 -26 -156
0 -87 4 -107 27 -158 38 -80 114 -158 191 -193 54 -25 74 -29 152 -29 l90 0 0
80 c0 65 -3 79 -15 77 -46 -10 -125 -1 -166 19 -41 19 -104 87 -104 111 0 4
131 8 290 8 l291 0 8 23 c14 36 4 139 -19 200 -41 109 -138 200 -246 233 -74
22 -189 18 -255 -10z m239 -156 c46 -24 61 -37 90 -74 43 -56 42 -56 -193 -56
l-215 0 20 39 c20 41 67 82 110 100 45 18 147 13 188 -9z"/>
<path d="M17003 1081 c-140 -52 -230 -161 -254 -308 -20 -121 21 -244 111
-334 73 -73 143 -102 258 -107 l92 -4 0 83 0 84 -69 -3 c-54 -3 -77 1 -109 17
-37 19 -112 94 -112 113 0 4 125 8 278 9 152 1 286 2 297 3 18 1 20 8 19 86
-2 156 -75 275 -211 342 -57 28 -78 33 -157 35 -71 3 -102 -1 -143 -16z m234
-162 c44 -21 97 -77 106 -110 5 -18 -5 -19 -209 -19 -183 0 -214 2 -214 15 0
22 68 93 109 115 51 27 151 27 208 -1z"/>
<path d="M18785 1087 c-133 -44 -227 -144 -261 -277 -45 -175 42 -363 205
-443 57 -28 78 -32 158 -35 l93 -4 0 87 c0 54 -4 84 -10 80 -5 -3 -37 -6 -70
-6 -46 -1 -70 5 -109 27 -43 23 -101 85 -101 107 0 4 132 7 294 7 l294 0 6 23
c19 70 -7 191 -57 270 -74 115 -171 169 -312 174 -55 2 -105 -2 -130 -10z
m245 -182 c25 -17 55 -50 68 -73 l23 -42 -215 0 c-236 0 -237 0 -194 56 54 70
107 95 198 92 65 -3 81 -7 120 -33z"/>
<path d="M22580 710 l0 -390 80 0 80 0 0 223 c0 241 6 268 62 329 65 68 185
91 265 50 52 -27 109 -91 122 -139 6 -21 11 -132 11 -250 l0 -213 81 0 81 0
-4 242 -3 243 -32 67 c-42 89 -101 151 -182 191 -61 30 -72 32 -171 32 -94 0
-111 -3 -164 -27 -32 -16 -60 -28 -62 -28 -2 0 -4 14 -4 30 l0 30 -80 0 -80 0
0 -390z"/>
</g>
</svg>
